<?xml version="1.0" encoding="UTF-8"?>
<svg width="22px" height="20px" viewBox="0 0 22 20" version="1.1" xmlns="http://www.w3.org/2000/svg" xmlns:xlink="http://www.w3.org/1999/xlink">
    <!-- Generator: sketchtool 49 (51002) - http://www.bohemiancoding.com/sketch -->
    <title>A4B4BFD5-98FA-4D7D-9C2D-D8D653E4CA49</title>
    <desc>Created with sketchtool.</desc>
    <defs></defs>
    <g id="EY_Styles" stroke="none" stroke-width="1" fill="none" fill-rule="evenodd">
        <g id="AV" transform="translate(-97.000000, -434.000000)">
            <g id="ic_podcasts" transform="translate(96.000000, 432.000000)">
                <g id="ic_settings_input_antenna_black_24px">
                    <polygon id="Shape" points="0 0 24 0 24 24 0 24"></polygon>
                    <path d="M12,6.21582734 C8.13397739,6.21582734 5.00719424,9.38121274 5.00719424,13.294964 L7.00513875,13.294964 C7.00513875,10.5037616 9.24283659,8.23843782 12,8.23843782 C14.7571634,8.23843782 16.9948613,10.5037616 16.9948613,13.294964 L18.9928058,13.294964 C18.9928058,9.38121274 15.8660226,6.21582734 12,6.21582734 Z M13.0014388,19.6834532 L15.7122302,19.6834532 L15.7122302,21.7553957 L8.28776978,21.7553957 L8.28776978,19.6834532 L10.9985612,19.6834532 L10.9985612,15.5117541 C10.117295,15.1203929 9.49640288,14.2373215 9.49640288,13.2137615 C9.49640288,11.828945 10.6180144,10.705036 12,10.705036 C13.3819856,10.705036 14.5035971,11.828945 14.5035971,13.2137615 C14.5035971,14.2473564 13.882705,15.1203929 13.0014388,15.5117541 L13.0014388,19.6834532 Z M12,2.24460432 C5.94984957,2.24460432 1.03597122,7.19717462 1.03597122,13.294964 L3.029431,13.294964 C3.029431,8.3022106 7.04625245,4.25376063 12,4.25376063 C16.9537475,4.25376063 20.970569,8.3022106 20.970569,13.294964 L22.9640288,13.294964 C22.9640288,7.19717462 18.0501504,2.24460432 12,2.24460432 Z" id="Shape" fill="#ffffff" fill-rule="nonzero"></path>
                </g>
            </g>
        </g>
    </g>
</svg>