<?xml version="1.0" encoding="UTF-8"?>
<svg width="15px" height="15px" viewBox="0 0 15 15" version="1.1" xmlns="http://www.w3.org/2000/svg" xmlns:xlink="http://www.w3.org/1999/xlink">
    <!-- Generator: Sketch 47 (45396) - http://www.bohemiancoding.com/sketch -->
    <title>Shape</title>
    <desc>Created with Sketch.</desc>
    <defs></defs>
    <g id="EY_Styles" stroke="none" stroke-width="1" fill="none" fill-rule="evenodd">
        <g id="EY_Article_Reference_01_Open_768px" transform="translate(-544.000000, -114.000000)" fill="#2E2E38">
            <g id="references" transform="translate(44.000000, 112.000000)">
                <g id="external-link-icon" transform="translate(77.000000, 2.000000)">
                    <path d="M424.666667,13.3333333 L424.666667,1.66666667 L430.5,1.66666667 L430.5,0 L424.666667,0 C423.741667,0 423,0.75 423,1.66666667 L423,13.3333333 C423,14.25 423.741667,15 424.666667,15 L436.333333,15 C437.25,15 438,14.25 438,13.3333333 L438,7.5 L436.333333,7.5 L436.333333,13.3333333 L424.666667,13.3333333 Z M432.166667,1.66666667 L435.158333,1.66666667 L426.966667,9.85833333 L428.141667,11.0333333 L436.333333,2.84166667 L436.333333,5.83333333 L438,5.83333333 L438,0 L432.166667,0 L432.166667,1.66666667 Z" id="Shape"></path>
                </g>
            </g>
        </g>
    </g>
</svg>