<?xml version="1.0" encoding="UTF-8" standalone="no"?>
<svg width="23px" height="15px" viewBox="0 0 23 15" version="1.1" xmlns="http://www.w3.org/2000/svg" xmlns:xlink="http://www.w3.org/1999/xlink">
    <!-- Generator: Sketch 47.1 (45422) - http://www.bohemiancoding.com/sketch -->
    <title>Fill 20</title>
    <desc>Created with Sketch.</desc>
    <defs></defs>
    <g id="EY_Styles" stroke="none" stroke-width="1" fill="none" fill-rule="evenodd">
        <g id="EY_CTAs_Desktop-and-Tablet" transform="translate(-1264.000000, -3090.000000)" fill="#2E2E38">
            <g id="Icons-Light-BG" transform="translate(790.000000, 3012.000000)">
                <g id="default" transform="translate(84.000000, 63.000000)">
                    <g id="Google+-Light-BG-" transform="translate(378.000000, 0.000000)">
                        <g id="Group-2">
                            <g id="Group" transform="translate(12.000000, 15.000000)">
                                <path d="M0.0196868354,6.89973244 C0.0834843503,3.15801359 3.59259983,-0.118740401 7.40960767,0.00609067666 C9.23855382,-0.0772124384 10.9578086,0.702919998 12.3585801,1.79871439 C11.7606991,2.46464493 11.1416362,3.10610363 10.4802098,3.70603438 C8.79625801,2.56525136 6.40145564,2.23920742 4.71750384,3.55697865 C2.30858029,5.19016465 2.19888891,9.04633259 4.51602473,10.8043497 C6.76936305,12.8088154 11.0284145,11.8136275 11.6510077,8.74451329 C10.2396453,8.72374931 8.82450039,8.74451329 7.41313797,8.69952467 C7.40960767,7.87415641 7.40607738,7.04878816 7.40960767,6.2236671 C9.76910707,6.21674577 12.1286065,6.21303792 14.4916362,6.23058842 C14.6331002,8.17251505 14.3713539,10.2392727 13.15441,11.8447734 C11.3113426,14.3866308 7.61133895,15.1286959 4.72456444,14.0398229 C1.8274512,12.9578711 -0.224408004,9.95821743 0.0196868354,6.89973244 Z M18.9749796,3.63157895 C19.6408626,3.63157895 20.3065058,3.63157895 20.9757446,3.63157895 C20.9791004,4.30079118 20.9824561,4.97335907 20.9891677,5.64233161 C21.6584064,5.6492826 22.331001,5.6492826 23,5.6559939 C23,6.32161079 23,6.99082303 23,7.65667962 C22.331001,7.66339091 21.6617622,7.66674656 20.9891677,7.67345786 C20.9824561,8.34578606 20.9791004,9.01499829 20.9757446,9.68421053 C20.3065058,9.68421053 19.6408626,9.68421053 18.9716238,9.68421053 C18.9649123,9.01499829 18.9649123,8.34578606 18.9582007,7.67681351 C18.288962,7.67010221 17.6166072,7.66339091 16.9473684,7.65667962 C16.9473684,6.99082303 16.9473684,6.32496644 16.9473684,5.6559939 C17.6166072,5.6492826 18.2856062,5.64592695 18.9582007,5.64233161 C18.9615565,4.97000342 18.9682681,4.30079118 18.9749796,3.63157895 Z" id="Fill-20"></path>
                            </g>
                        </g>
                    </g>
                </g>
            </g>
        </g>
    </g>
</svg>