<?xml version="1.0" encoding="UTF-8"?>
<svg width="20px" height="15px" viewBox="0 0 20 15" version="1.1" xmlns="http://www.w3.org/2000/svg" xmlns:xlink="http://www.w3.org/1999/xlink">
    <!-- Generator: sketchtool 50.2 (55047) - http://www.bohemiancoding.com/sketch -->
    <title>980446F0-56AC-4DD1-90AE-F24129ECB6AB</title>
    <desc>Created with sketchtool.</desc>
    <defs></defs>
    <g id="Page-1" stroke="none" stroke-width="1" fill="none" fill-rule="evenodd">
        <g id="EY_Full_Width_Profile_Contact_01" transform="translate(-442.000000, -158.000000)" fill="#FFFFFF">
            <g id="Group" transform="translate(231.000000, 70.000000)">
                <g id="social-icons" transform="translate(196.000000, 70.000000)">
                    <g id="Mail-Dark-BG_mobile">
                        <g id="Mail">
                            <path d="M34.7107438,22.9451834 L34.7107438,31.2758264 C34.7107438,31.7374765 34.5463709,32.132671 34.2176201,32.4614217 C33.8888693,32.7901725 33.4936748,32.9545455 33.0320248,32.9545455 L17.5878099,32.9545455 C17.1261599,32.9545455 16.7309654,32.7901725 16.4022146,32.4614217 C16.0734638,32.132671 15.9090909,31.7374765 15.9090909,31.2758264 L15.9090909,22.9451834 C16.2168576,23.2879235 16.5700845,23.5921883 16.9687823,23.8579868 C19.5008628,25.5786824 21.239019,26.7852496 22.1833032,27.4777247 C22.582001,27.771502 22.9055009,28.0005749 23.1538126,28.1649503 C23.4021244,28.3293257 23.7326189,28.4971959 24.145306,28.668566 C24.5579932,28.8399361 24.9426958,28.9256198 25.2994254,28.9256198 L25.3204093,28.9256198 C25.6771389,28.9256198 26.0618415,28.8399361 26.4745287,28.668566 C26.8872158,28.4971959 27.2177103,28.3293257 27.4660221,28.1649503 C27.7143338,28.0005749 28.0378338,27.771502 28.4365315,27.4777247 C29.6256301,26.6173769 31.3672836,25.4108097 33.6615444,23.8579868 C34.0602422,23.5851936 34.4099718,23.2809288 34.7107438,22.9451834 Z M34.7107438,19.8605372 C34.7107438,20.4131183 34.5393763,20.94121 34.1966361,21.4448283 C33.8538959,21.9484465 33.4272258,22.3786139 32.9166129,22.7353435 C30.2866066,24.5609595 28.6498719,25.6975808 28.0063598,26.1452415 C27.9364128,26.1942044 27.7877777,26.3008719 27.56045,26.4652473 C27.3331224,26.6296227 27.1442684,26.7625199 26.9938824,26.8639431 C26.8434964,26.9653662 26.661637,27.0790283 26.4482987,27.2049329 C26.2349604,27.3308374 26.0338659,27.4252644 25.845009,27.4882167 C25.6561522,27.551169 25.4812874,27.5826446 25.3204093,27.5826446 L25.2994254,27.5826446 C25.1385473,27.5826446 24.9636825,27.551169 24.7748257,27.4882167 C24.5859688,27.4252644 24.3848743,27.3308374 24.171536,27.2049329 C23.9581978,27.0790283 23.7763383,26.9653662 23.6259524,26.8639431 C23.4755664,26.7625199 23.2867124,26.6296227 23.0593847,26.4652473 C22.832057,26.3008719 22.6834219,26.1942044 22.6134749,26.1452415 C21.9769575,25.6975808 21.0606658,25.0593243 19.8645726,24.2304526 C18.6684793,23.401581 17.9515336,22.9032162 17.7137138,22.7353435 C17.2800426,22.4415662 16.8708589,22.0376285 16.4861506,21.5235182 C16.1014422,21.0094079 15.9090909,20.532027 15.9090909,20.0913611 C15.9090909,19.5457746 16.0542287,19.0911261 16.3445087,18.7274019 C16.6347886,18.3636776 17.0492182,18.1818182 17.5878099,18.1818182 L33.0320248,18.1818182 C33.4866801,18.1818182 33.880126,18.3461911 34.2123741,18.6749419 C34.5446222,19.0036927 34.7107438,19.3988872 34.7107438,19.8605372 Z" id="Icon_mail"></path>
                        </g>
                    </g>
                </g>
            </g>
        </g>
    </g>
</svg>