<?xml version="1.0" encoding="UTF-8"?>
<svg width="22px" height="19px" viewBox="0 0 22 19" version="1.1" xmlns="http://www.w3.org/2000/svg" xmlns:xlink="http://www.w3.org/1999/xlink">
    <!-- Generator: sketchtool 49 (51002) - http://www.bohemiancoding.com/sketch -->
    <title>8F81B5F6-24FC-4B54-A2FB-B8EBAF3F78A7</title>
    <desc>Created with sketchtool.</desc>
    <defs></defs>
    <g id="EY_Styles" stroke="none" stroke-width="1" fill="none" fill-rule="evenodd">
        <g id="AV" transform="translate(-145.000000, -435.000000)">
            <g id="Icon-24px" transform="translate(144.000000, 432.000000)">
                <polygon id="Shape" points="0 0 24 0 24 23.0904158 0 23.0904158"></polygon>
                <path d="M21,3.84630197 L3,3.84630197 C1.9,3.84630197 1,4.71219256 1,5.77050328 L1,17.3157112 C1,18.3740219 1.9,19.2399125 3,19.2399125 L8,19.2399125 L8,21.1641138 L16,21.1641138 L16,19.2399125 L21,19.2399125 C22.1,19.2399125 22.99,18.3740219 22.99,17.3157112 L23,5.77050328 C23,4.71219256 22.1,3.84630197 21,3.84630197 L21,3.84630197 Z M21,17.3157112 L3,17.3157112 L3,5.77050328 L21,5.77050328 L21,17.3157112 L21,17.3157112 Z" id="Shape" fill="#ffffff"></path>
                <polygon id="Path" fill="#ffffff" points="10 7.6947046 10 15.3915098 15 11.5431072"></polygon>
            </g>
        </g>
    </g>
</svg>